<mxfile host="app.diagrams.net" modified="2021-09-19T21:36:04.951Z" agent="5.0 (Windows NT 10.0; Win64; x64) AppleWebKit/537.36 (KHTML, like Gecko) Chrome/93.0.4577.63 Safari/537.36" etag="2u7UbFEWcUfCSY30TZSv" version="15.2.5" type="github">
  <diagram id="C5RBs43oDa-KdzZeNtuy" name="Page-1">
    <mxGraphModel dx="868" dy="488" grid="1" gridSize="10" guides="1" tooltips="1" connect="1" arrows="1" fold="1" page="1" pageScale="1" pageWidth="827" pageHeight="1169" math="0" shadow="0">
      <root>
        <mxCell id="WIyWlLk6GJQsqaUBKTNV-0" />
        <mxCell id="WIyWlLk6GJQsqaUBKTNV-1" parent="WIyWlLk6GJQsqaUBKTNV-0" />
        <mxCell id="lE3NF_PI5cldTT7ZDD_Q-0" value="" style="ellipse;whiteSpace=wrap;html=1;aspect=fixed;" parent="WIyWlLk6GJQsqaUBKTNV-1" vertex="1">
          <mxGeometry x="390" y="40" width="130" height="130" as="geometry" />
        </mxCell>
        <mxCell id="lE3NF_PI5cldTT7ZDD_Q-1" value="Hello. What is thines nameth" style="text;html=1;strokeColor=none;fillColor=none;align=center;verticalAlign=middle;whiteSpace=wrap;rounded=0;" parent="WIyWlLk6GJQsqaUBKTNV-1" vertex="1">
          <mxGeometry x="410" y="70" width="90" height="70" as="geometry" />
        </mxCell>
        <mxCell id="lE3NF_PI5cldTT7ZDD_Q-3" value="" style="endArrow=classic;html=1;" parent="WIyWlLk6GJQsqaUBKTNV-1" source="lE3NF_PI5cldTT7ZDD_Q-0" edge="1">
          <mxGeometry width="50" height="50" relative="1" as="geometry">
            <mxPoint x="460" y="170" as="sourcePoint" />
            <mxPoint x="460" y="290" as="targetPoint" />
          </mxGeometry>
        </mxCell>
        <mxCell id="E8_IAmrXLLCKTcGeQSGa-0" value="name" style="shape=parallelogram;perimeter=parallelogramPerimeter;whiteSpace=wrap;html=1;fixedSize=1;" vertex="1" parent="WIyWlLk6GJQsqaUBKTNV-1">
          <mxGeometry x="342" y="290" width="226" height="80" as="geometry" />
        </mxCell>
        <mxCell id="E8_IAmrXLLCKTcGeQSGa-2" value="" style="endArrow=classic;html=1;" edge="1" parent="WIyWlLk6GJQsqaUBKTNV-1">
          <mxGeometry width="50" height="50" relative="1" as="geometry">
            <mxPoint x="454.5" y="370" as="sourcePoint" />
            <mxPoint x="454.5" y="490" as="targetPoint" />
          </mxGeometry>
        </mxCell>
        <mxCell id="E8_IAmrXLLCKTcGeQSGa-3" value="" style="shape=parallelogram;perimeter=parallelogramPerimeter;whiteSpace=wrap;html=1;fixedSize=1;" vertex="1" parent="WIyWlLk6GJQsqaUBKTNV-1">
          <mxGeometry x="325" y="490" width="245" height="90" as="geometry" />
        </mxCell>
        <mxCell id="E8_IAmrXLLCKTcGeQSGa-4" value="print: who?" style="text;html=1;strokeColor=none;fillColor=none;align=center;verticalAlign=middle;whiteSpace=wrap;rounded=0;" vertex="1" parent="WIyWlLk6GJQsqaUBKTNV-1">
          <mxGeometry x="350" y="500" width="190" height="70" as="geometry" />
        </mxCell>
        <mxCell id="E8_IAmrXLLCKTcGeQSGa-5" value="" style="shape=parallelogram;perimeter=parallelogramPerimeter;whiteSpace=wrap;html=1;fixedSize=1;" vertex="1" parent="WIyWlLk6GJQsqaUBKTNV-1">
          <mxGeometry x="320" y="700" width="245" height="90" as="geometry" />
        </mxCell>
        <mxCell id="E8_IAmrXLLCKTcGeQSGa-6" value="name" style="text;html=1;strokeColor=none;fillColor=none;align=center;verticalAlign=middle;whiteSpace=wrap;rounded=0;" vertex="1" parent="WIyWlLk6GJQsqaUBKTNV-1">
          <mxGeometry x="340" y="710" width="198" height="70" as="geometry" />
        </mxCell>
        <mxCell id="E8_IAmrXLLCKTcGeQSGa-7" value="" style="endArrow=classic;html=1;" edge="1" parent="WIyWlLk6GJQsqaUBKTNV-1">
          <mxGeometry width="50" height="50" relative="1" as="geometry">
            <mxPoint x="442" y="580" as="sourcePoint" />
            <mxPoint x="442" y="700" as="targetPoint" />
          </mxGeometry>
        </mxCell>
        <mxCell id="E8_IAmrXLLCKTcGeQSGa-8" value="" style="endArrow=classic;html=1;" edge="1" parent="WIyWlLk6GJQsqaUBKTNV-1">
          <mxGeometry width="50" height="50" relative="1" as="geometry">
            <mxPoint x="439.5" y="790" as="sourcePoint" />
            <mxPoint x="439.5" y="910" as="targetPoint" />
          </mxGeometry>
        </mxCell>
        <mxCell id="E8_IAmrXLLCKTcGeQSGa-9" value="" style="shape=parallelogram;perimeter=parallelogramPerimeter;whiteSpace=wrap;html=1;fixedSize=1;" vertex="1" parent="WIyWlLk6GJQsqaUBKTNV-1">
          <mxGeometry x="310" y="910" width="245" height="90" as="geometry" />
        </mxCell>
        <mxCell id="E8_IAmrXLLCKTcGeQSGa-10" value="print: cares XD" style="text;html=1;strokeColor=none;fillColor=none;align=center;verticalAlign=middle;whiteSpace=wrap;rounded=0;" vertex="1" parent="WIyWlLk6GJQsqaUBKTNV-1">
          <mxGeometry x="335" y="920" width="190" height="70" as="geometry" />
        </mxCell>
        <mxCell id="E8_IAmrXLLCKTcGeQSGa-11" value="" style="ellipse;whiteSpace=wrap;html=1;aspect=fixed;" vertex="1" parent="WIyWlLk6GJQsqaUBKTNV-1">
          <mxGeometry x="393" y="1060" width="80" height="80" as="geometry" />
        </mxCell>
        <mxCell id="E8_IAmrXLLCKTcGeQSGa-12" value="" style="endArrow=classic;html=1;" edge="1" parent="WIyWlLk6GJQsqaUBKTNV-1">
          <mxGeometry width="50" height="50" relative="1" as="geometry">
            <mxPoint x="432.5" y="1000" as="sourcePoint" />
            <mxPoint x="433" y="1060" as="targetPoint" />
            <Array as="points">
              <mxPoint x="433" y="1050" />
            </Array>
          </mxGeometry>
        </mxCell>
        <mxCell id="E8_IAmrXLLCKTcGeQSGa-13" value="lol n00b" style="text;html=1;strokeColor=none;fillColor=none;align=center;verticalAlign=middle;whiteSpace=wrap;rounded=0;" vertex="1" parent="WIyWlLk6GJQsqaUBKTNV-1">
          <mxGeometry x="413" y="1090" width="40" height="20" as="geometry" />
        </mxCell>
        <mxCell id="E8_IAmrXLLCKTcGeQSGa-14" value="&lt;span class=&quot;NormalTextRun SCXW222344965 BCX0&quot; style=&quot;margin: 0px ; padding: 0px ; font-family: &amp;#34;calibri&amp;#34; , &amp;#34;calibri_embeddedfont&amp;#34; , &amp;#34;calibri_msfontservice&amp;#34; , sans-serif ; font-size: 14.6667px ; text-align: left ; background-color: rgb(255 , 255 , 255)&quot;&gt;Who was the first king of&amp;nbsp;&lt;/span&gt;&lt;span class=&quot;NormalTextRun SpellingErrorV2 SCXW222344965 BCX0&quot; style=&quot;margin: 0px ; padding: 0px ; background-repeat: repeat-x ; background-position: left bottom ; border-bottom: 1px solid transparent ; font-family: &amp;#34;calibri&amp;#34; , &amp;#34;calibri_embeddedfont&amp;#34; , &amp;#34;calibri_msfontservice&amp;#34; , sans-serif ; font-size: 14.6667px ; text-align: left ; background-color: rgb(255 , 255 , 255)&quot;&gt;Israel&lt;/span&gt;&lt;span class=&quot;NormalTextRun SCXW222344965 BCX0&quot; style=&quot;margin: 0px ; padding: 0px ; font-family: &amp;#34;calibri&amp;#34; , &amp;#34;calibri_embeddedfont&amp;#34; , &amp;#34;calibri_msfontservice&amp;#34; , sans-serif ; font-size: 14.6667px ; text-align: left ; background-color: rgb(255 , 255 , 255)&quot;&gt;?&lt;/span&gt;" style="ellipse;whiteSpace=wrap;html=1;aspect=fixed;" vertex="1" parent="WIyWlLk6GJQsqaUBKTNV-1">
          <mxGeometry x="395" y="1190" width="120" height="120" as="geometry" />
        </mxCell>
        <mxCell id="E8_IAmrXLLCKTcGeQSGa-15" value="" style="endArrow=classic;html=1;" edge="1" parent="WIyWlLk6GJQsqaUBKTNV-1">
          <mxGeometry width="50" height="50" relative="1" as="geometry">
            <mxPoint x="454.5" y="1310" as="sourcePoint" />
            <mxPoint x="454.5" y="1400" as="targetPoint" />
            <Array as="points">
              <mxPoint x="454.5" y="1350" />
            </Array>
          </mxGeometry>
        </mxCell>
      </root>
    </mxGraphModel>
  </diagram>
</mxfile>
